
<svg xmlns="http://www.w3.org/2000/svg" version="1.1" xmlns:xlink="http://www.w3.org/1999/xlink" preserveAspectRatio="none" x="0px" y="0px" width="473px" height="313px" viewBox="0 0 473 313">
<defs>
<g id="carSide_0_Layer0_0_FILL">
<path fill="#000000" stroke="none" d="
M 30.05 66.45
Q 26.5 70.05 25.7 74.85 25.45 76.15 25.45 77.6 25.45 84.15 30.05 88.75 34.7 93.4 41.25 93.4 47.8 93.4 52.4 88.75 57 84.15 57 77.6 57 76.15 56.75 74.85 56 70.05 52.4 66.45 47.8 61.85 41.25 61.85 34.7 61.85 30.05 66.45
M 111.1 66.45
Q 107.5 70.05 106.7 74.85 106.5 76.15 106.5 77.6 106.5 84.15 111.1 88.75 115.75 93.4 122.25 93.4 128.8 93.4 133.4 88.75 138 84.15 138 77.6 138 76.15 137.8 74.85 137 70.05 133.4 66.45 128.8 61.85 122.25 61.85 115.75 61.85 111.1 66.45
M 161.6 39.65
Q 161.85 36 158.1 35.1
L 126.1 30.45 107.3 7.95
Q 101.05 0.25 96.5 0
L 50.65 0
Q 45.05 -0.1 40.4 5.1
L 20.5 30.45 12.85 30.45
Q 0.1 29.55 0 35.55
L 0 65.15
Q 0.35 74.65 7.1 74.85
L 18.75 74.85
Q 19.6 67.2 25.2 61.55 31.85 54.95 41.3 54.95 50.7 54.95 57.3 61.55 62.95 67.2 63.8 74.85
L 99.75 74.85
Q 100.6 67.2 106.2 61.55 112.85 54.95 122.3 54.95 131.75 54.95 138.35 61.55 144 67.2 144.85 74.85
L 158.55 74.85
Q 161.3 74.45 161.6 71.55
L 161.6 39.65
M 110.15 30.45
L 81.4 30.45 81.4 12.5 89.1 12.5
Q 95.7 12.05 99.05 16.5
L 110.15 30.45
M 54.05 12.5
L 68.85 12.5 68.85 30.45 37.55 30.45 46.4 19.05
Q 50.9 13.2 54.05 12.5 Z"/>
</g>
</defs>

<g transform="matrix( 2.929443359375, 0, 0, 2.929443359375, 0,16.7) ">
<g transform="matrix( 1, 0, 0, 1, 0,0) ">
<use xlink:href="#carSide_0_Layer0_0_FILL"/>
</g>
</g>
</svg>
