
<svg xmlns="http://www.w3.org/2000/svg" version="1.1" xmlns:xlink="http://www.w3.org/1999/xlink" preserveAspectRatio="none" x="0px" y="0px" width="473px" height="313px" viewBox="0 0 473 313">
<defs>
<g id="car_front_0_Layer0_0_FILL">
<path fill="#000000" stroke="none" d="
M 125.1 30.25
L 125.1 22.3 112.8 22.3 112.8 27.5 111.45 28.85 101.45 0 23.65 0 13.65 28.85 12.3 27.5 12.3 22.3 0 22.3 0 30.25 9.95 30.25 10.65 30.95 5.3 30.95 5.3 75.35 8.55 75.35 8.55 93.95 23.95 93.95 23.75 75.35 101.35 75.35 101.15 93.95 116.55 93.95 116.55 75.35 119.8 75.35 119.8 30.95 114.45 30.95 115.15 30.25 125.1 30.25
M 98.75 44.5
Q 98.75 41.8 100.65 39.9 102.55 38 105.25 38 107.95 38 109.85 39.9 111.75 41.8 111.75 44.5 111.75 47.2 109.85 49.1 107.95 51 105.25 51 102.55 51 100.65 49.1 98.75 47.2 98.75 44.5
M 93.65 9.6
L 100.8 30.95 24.3 30.95 31.45 9.6 93.65 9.6
M 15.25 39.9
Q 17.15 38 19.85 38 22.55 38 24.45 39.9 26.35 41.8 26.35 44.5 26.35 47.2 24.45 49.1 22.55 51 19.85 51 17.15 51 15.25 49.1 13.35 47.2 13.35 44.5 13.35 41.8 15.25 39.9 Z"/>
</g>
</defs>

<g transform="matrix( 2.929443359375, 0, 0, 2.929443359375, 53.45,15.95) ">
<g transform="matrix( 1, 0, 0, 1, 0,0) ">
<use xlink:href="#car_front_0_Layer0_0_FILL"/>
</g>
</g>
</svg>
