
<svg xmlns="http://www.w3.org/2000/svg" version="1.1" xmlns:xlink="http://www.w3.org/1999/xlink" preserveAspectRatio="none" x="0px" y="0px" width="473px" height="313px" viewBox="0 0 473 313">
<defs>
<g id="engine_0_Layer0_0_FILL">
<path fill="#000000" stroke="none" d="
M 131.3 23
L 130.75 20.1 117 20.1 110.1 38.5 106.55 38.5 99.6 20.1 90.85 20.1 90.85 12.25 71.6 12.25 71.6 7.1 87.3 7.1 87.3 0 29.85 0 29.85 7.1 48 7.1 48 12.25 26.3 12.25 26.3 20.1 11.55 20.1 11.55 45.2 7.1 45.2 7.1 25.05 0 25.05 0 73.3 7.1 73.3 7.1 52.3 11.55 52.3 11.55 77.45 28.25 77.45 41.7 93.2 99.6 93.2 106.55 74.8 110.1 74.8 117 93.2 130.75 93.2 131.3 90.4
Q 138.1 57.65 131.3 23 Z"/>
</g>
</defs>

<g transform="matrix( 2.929443359375, 0, 0, 2.929443359375, 39.4,16.95) ">
<g transform="matrix( 1, 0, 0, 1, 0,0) ">
<use xlink:href="#engine_0_Layer0_0_FILL"/>
</g>
</g>
</svg>
