
<svg xmlns="http://www.w3.org/2000/svg" version="1.1" xmlns:xlink="http://www.w3.org/1999/xlink" preserveAspectRatio="none" x="0px" y="0px" width="473px" height="313px" viewBox="0 0 473 313">
<defs>
<g id="gauge_0_Layer0_0_FILL">
<path fill="#000000" stroke="none" d="
M 80.05 82.1
L 79.9 81.95
Q 78.9 81 77.85 80.3
L 70.55 39.65 62.85 80.3
Q 61.75 81.05 60.8 82 56.8 86 56.8 91.6 56.8 97.05 60.55 100.9 60.65 101.05 60.8 101.15 60.85 101.2 60.9 101.25 64.8 105.1 70.35 105.1 75.9 105.1 79.9 101.25
L 79.95 101.2 79.95 101.15
Q 80.05 101.05 80.2 100.9 83.9 97.05 83.9 91.6 83.9 86.05 80.05 82.1
M 39.25 82.9
L 36.5 74.5 19.5 80.05 22.25 88.45 39.25 82.9
M 20.75 56.85
L 37.8 62.25 40.5 53.8 23.45 48.4 20.75 56.85
M 47.65 45.1
L 54.75 39.8 44.05 25.5 36.95 30.8 47.65 45.1
M 66.25 36.35
L 75.1 36.2 74.75 18.35 65.9 18.5 66.25 36.35
M 140.8 70.4
Q 140.8 41.25 120.2 20.65 99.55 0 70.4 0 41.25 0 20.6 20.65 0 41.25 0 70.4 0.05 90.7 10 106.9
L 21.9 99.55
Q 13.95 86.6 14 70.4 14 47.05 30.5 30.55 47.05 14 70.4 14 93.75 14 110.3 30.55 126.8 47.05 126.8 70.4 126.85 86.6 118.95 99.55
L 130.9 106.85
Q 140.75 90.7 140.8 70.4
M 104.15 74.1
L 101.4 82.5 118.4 88.05 121.15 79.65 104.15 74.1
M 100.15 53.4
L 102.8 61.85 119.85 56.45 117.2 48 100.15 53.4
M 85.85 39.4
L 92.95 44.7 103.65 30.4 96.55 25.1 85.85 39.4 Z"/>
</g>
</defs>

<g transform="matrix( 2.929443359375, 0, 0, 2.929443359375, 39.4,0) ">
<g transform="matrix( 1, 0, 0, 1, 0,0) ">
<use xlink:href="#gauge_0_Layer0_0_FILL"/>
</g>
</g>
</svg>
