
<svg xmlns="http://www.w3.org/2000/svg" version="1.1" xmlns:xlink="http://www.w3.org/1999/xlink" preserveAspectRatio="none" x="0px" y="0px" width="473px" height="313px" viewBox="0 0 473 313">
<defs>
<g id="gears_0_Layer0_0_FILL">
<path fill="#000000" stroke="none" d="
M 85.3 21.45
L 89.75 15.7 77.85 6.55 73.4 12.35
Q 68.3 9.6 62.75 8.3 58.4 7.35 53.8 7.25
L 52.8 0 37.9 2 38.9 9.25
Q 28.9 12.25 21.5 19.4
L 15.65 14.95 6.55 26.9 12.4 31.35
Q 7.85 39.7 7.25 49.05
L 7.25 49.1
Q 7.15 50.05 7.2 51
L 0 52 2 66.85 9.2 65.85
Q 9.45 66.8 9.75 67.65
L 9.85 67.9
Q 10.1 68.55 10.4 69.2 13.45 77.15 19.45 83.35
L 15.1 89.15 26.95 98.25 31.35 92.45
Q 40.5 97.4 50.9 97.65
L 51.9 104.8 66.8 102.8 65.8 95.65
Q 75.85 92.6 83.35 85.35
L 89.1 89.7 98.15 77.8 92.45 73.45
Q 96.55 65.8 97.4 57.4 97.55 55.65 97.6 53.85
L 104.8 52.85 102.8 38 95.6 39
Q 92.6 29 85.3 21.45
M 47.15 31.9
L 47.15 31.95
Q 48.25 31.6 49.5 31.45 53.5 30.9 57.25 31.75
L 57.3 31.75
Q 61.45 32.75 65.15 35.55 72.1 40.85 73.3 49.55 73.65 52.25 73.4 54.85
L 73.45 54.85
Q 72.85 60.35 69.15 65.15 63.85 72.1 55.2 73.3 46.55 74.5 39.55 69.15 34.85 65.6 32.75 60.35
L 32.6 60.05 32.6 60
Q 32.55 59.85 32.45 59.7
L 32.45 59.65
Q 31.7 57.5 31.4 55.25 31.1 52.9 31.25 50.8
L 31.25 50.7
Q 31.65 44.75 35.6 39.6
L 35.65 39.55
Q 40.1 33.55 47.15 31.9
M 128.6 40.3
L 127.75 44.5
Q 124.5 44.3 121.35 45.05 118.8 45.65 116.35 46.8
L 114.05 43.35 106.8 48.15 109.25 51.6
Q 104.9 55.75 102.8 61.4
L 98.7 60.45 97 68.95 101.25 69.8
Q 101.05 75.2 103.05 80.25
L 103.05 80.3
Q 103.2 80.8 103.5 81.2
L 100 83.55 104.8 90.7 108.3 88.35
Q 108.75 88.85 109.1 89.2
L 109.2 89.25
Q 109.45 89.6 109.8 89.8 113.4 93.2 118.05 94.8
L 117.3 98.95 125.75 100.6 126.55 96.45
Q 132.5 96.75 137.9 94.15
L 140.25 97.6 147.45 92.8 145.1 89.35
Q 149.5 85.25 151.55 79.5
L 155.6 80.4 157.25 71.95 153.2 71.15
Q 153.3 66.2 151.6 61.55 151.25 60.65 150.85 59.65
L 154.3 57.35 149.45 50.25 146.05 52.55
Q 142 48.15 136.3 46.15
L 137.15 42 128.6 40.3
M 119.25 61.2
Q 119.75 60.8 120.35 60.4 122.3 59.1 124.4 58.55
L 124.4 58.6
Q 126.85 57.95 129.45 58.5 134.4 59.5 137.3 63.65 138.15 65 138.7 66.4 139.75 69.35 139.1 72.8 138.1 77.7 133.9 80.5 129.8 83.35 124.8 82.4 121.45 81.7 119.15 79.6
L 118.95 79.45
Q 118.85 79.35 118.8 79.35
L 118.8 79.3
Q 117.8 78.4 117.1 77.3 116.3 76.2 115.85 75
L 115.8 74.95
Q 114.5 71.8 115.25 68.15
L 115.3 68.1
Q 116.05 63.85 119.25 61.2 Z"/>
</g>
</defs>

<g transform="matrix( 2.929443359375, 0, 0, 2.929443359375, 6.45,0) ">
<g transform="matrix( 1, 0, 0, 1, 0,0) ">
<use xlink:href="#gears_0_Layer0_0_FILL"/>
</g>
</g>
</svg>
